<svg width="574" height="231" viewBox="0 0 574 231" fill="none" xmlns="http://www.w3.org/2000/svg">
<g opacity="0.2">
<path d="M84.8967 226.864L167.789 37.0145V3.92445H0.333252V45.7048H112.639L32.7548 226.864H84.8967Z" fill="white"/>
<path d="M276.726 230.875C330.539 230.875 365.969 201.128 365.969 153.665C365.969 108.542 332.21 81.4688 294.441 81.4688C274.052 81.4688 256.003 89.4906 245.307 100.186V45.7048H350.928V3.92445H197.845V131.939L230.935 140.63C244.304 127.929 259.345 122.581 277.729 122.581C303.131 122.581 317.838 135.95 317.838 155.671C317.838 173.72 302.797 188.761 276.392 188.761C252.995 188.761 232.272 180.07 217.231 164.361L190.826 197.451C209.877 218.174 237.954 230.875 276.726 230.875Z" fill="white"/>
<path d="M481.416 230.875C544.922 230.875 573.667 173.051 573.667 115.562C573.667 58.0718 544.922 0.582031 481.416 0.582031C417.575 0.582031 389.165 58.0718 389.165 115.562C389.165 173.051 417.575 230.875 481.416 230.875ZM481.416 188.761C449.328 188.761 437.296 156.673 437.296 115.562C437.296 74.4497 449.328 42.6966 481.416 42.6966C513.169 42.6966 525.201 74.4497 525.201 115.562C525.201 156.673 513.169 188.761 481.416 188.761Z" fill="white"/>
</g>
</svg>
