<svg xmlns="http://www.w3.org/2000/svg" viewBox="0 0 823.99 215.58"><title>logo</title><path d="M40.13,215.58H0V174.33H9.68V205.9H40.13ZM9.69,9.67H40.14V0H0V37.49H9.69ZM215.57,174.33H205.9V205.9H179.2v9.68h36.37ZM215.57,0H179.2V9.67h26.7V37.49h9.67Zm65.15,117.81h-8.39v11.64H267v6.84h5.11v30.57a19.82,19.82,0,0,0,.38,3.8,9.16,9.16,0,0,0,1.54,3.59,8.54,8.54,0,0,0,3.17,2.64,11.64,11.64,0,0,0,5.21,1h4.33v-8.2h-1.94a4.59,4.59,0,0,1-3.08-.92c-.47-.4-1-1.48-1-4.32V136.29H287v-6.84h-6.24ZM305.47,130a9.52,9.52,0,0,0-3.73,3.74v-4.33h-8.57v48.46h8.57V147.15c0-3.18.71-5.41,2.11-6.62a9,9,0,0,1,6.08-1.85,10.19,10.19,0,0,1,1.24.07c.42,0,1.92.23,1.92.23V128.79h-1.37A14,14,0,0,0,305.47,130Zm31.66,33.11a6.82,6.82,0,0,1-1.88,5,6,6,0,0,1-4.46,1.88c-3.83,0-5.68-2.14-5.68-6.56V129.35h-8.58V165.5a14.74,14.74,0,0,0,2.71,9.19c1.82,2.38,4.6,3.59,8.25,3.59h.1A11.32,11.32,0,0,0,337,173.8v4h8.67V129.35h-8.58Zm40-30.23c2.14,2.7,3.23,6.45,3.23,11.14v12.21H360.11c0,2,.06,3.91.14,5.8a20,20,0,0,0,.63,4.62,5.2,5.2,0,0,0,5.48,4A4.28,4.28,0,0,0,370.1,169a9.61,9.61,0,0,0,1.52-5l0-.55,8.65,1.65,0,.43c-.26,4.18-1.57,7.44-3.91,9.68s-5.92,3.38-10.63,3.38a16.37,16.37,0,0,1-5.47-.82,12.82,12.82,0,0,1-3.9-2.2,11.33,11.33,0,0,1-2.59-3.07,12.53,12.53,0,0,1-1.34-3.39,22.72,22.72,0,0,1-.49-3c-.12-1.16-.22-2.44-.28-3.83s-.12-2.78-.17-4.19-.07-2.73-.07-3.95c0-1.6,0-3.22.07-4.85s.14-3.19.26-4.67.29-2.86.48-4.12a16.58,16.58,0,0,1,.78-3.24,12.8,12.8,0,0,1,4.68-6.19c2.16-1.52,5.13-2.29,8.83-2.29C371.41,128.79,375,130.18,377.15,132.92ZM369,137.63a5.53,5.53,0,0,0-2.86-.64,6,6,0,0,0-2.94.74,5,5,0,0,0-2.08,2.75,16.54,16.54,0,0,0-.67,3.53c-.14,1.4-.24,3.13-.31,5.14h11.64v-3.54a22.11,22.11,0,0,0-.26-3.43,9,9,0,0,0-.86-2.78A4.24,4.24,0,0,0,369,137.63ZM424.44,129a12.19,12.19,0,0,0-6.21,1.52,20.32,20.32,0,0,0-4.34,3.44,9.6,9.6,0,0,0-3.33-3.51,11.14,11.14,0,0,0-5.88-1.45,9.63,9.63,0,0,0-5.41,1.44,13.1,13.1,0,0,0-3.22,3.11v-4.08h-8.66v48.46H396V144.57a7.47,7.47,0,0,1,1.65-5.07,5.25,5.25,0,0,1,4.17-1.85,4.91,4.91,0,0,1,4,1.59,6.74,6.74,0,0,1,1.4,4.54v34.13h8.57v-34a6,6,0,0,1,1.73-4.53,5.59,5.59,0,0,1,4.1-1.69,4.92,4.92,0,0,1,3.93,1.59,6.66,6.66,0,0,1,1.42,4.54v34.13h8.58V141.76a14.68,14.68,0,0,0-2.73-9.19C430.9,130.19,428.11,129,424.44,129Zm46.31,13.48v35.45h-8.57v-3.44a10.91,10.91,0,0,1-3.82,2.9,14.26,14.26,0,0,1-5.69,1.1,10.22,10.22,0,0,1-5.24-1.27,9.58,9.58,0,0,1-3.41-3.34,14.87,14.87,0,0,1-1.79-4.56,23.86,23.86,0,0,1-.55-5.19,26.26,26.26,0,0,1,.59-5.48,15.18,15.18,0,0,1,2.09-5.07,11.33,11.33,0,0,1,4.11-3.76,13.81,13.81,0,0,1,6.69-1.44h7v-5.83a6.4,6.4,0,0,0-1.21-4.09c-.77-1-2.32-1.45-4.59-1.45a6.44,6.44,0,0,0-3.47,1.07,4.91,4.91,0,0,0-2.11,3.4l-.1.51-8.13-2.27.1-.45a13,13,0,0,1,4.8-7.67,15.08,15.08,0,0,1,9.33-2.79c4.37,0,7.82,1,10.25,3.05S470.75,137.45,470.75,142.46ZM457.08,156a7.83,7.83,0,0,0-4.93,1.68c-1.39,1.08-2.09,3.09-2.09,6a7.67,7.67,0,0,0,1.32,4.84,5,5,0,0,0,4.15,1.59,6.38,6.38,0,0,0,5-1.84,7.7,7.7,0,0,0,1.66-5.25v-7Zm33.78-26a9.52,9.52,0,0,0-3.73,3.74v-4.33h-8.57v48.46h8.57V147.15c0-3.18.71-5.41,2.11-6.62a9,9,0,0,1,6.08-1.85,10.08,10.08,0,0,1,1.24.07c.42,0,1.92.23,1.92.23V128.79h-1.37A14,14,0,0,0,490.86,130Zm42.48-.59h-9.58l-12.7,21.81v-44.1h-8.57v70.75h8.57V166l5.51-9.95L526,177.91h9.23l-13.2-29.6Zm6,48.46h8.95V168h-8.95ZM570,130a9.52,9.52,0,0,0-3.73,3.74v-4.33h-8.57v48.46h8.57V147.15c0-3.18.71-5.41,2.11-6.62a9.06,9.06,0,0,1,6.09-1.85,10,10,0,0,1,1.23.07c.42,0,1.93.23,1.93.23V128.79h-1.38A14.06,14.06,0,0,0,570,130Zm31.66,33.11a6.82,6.82,0,0,1-1.88,5,6,6,0,0,1-4.46,1.88c-3.82,0-5.68-2.14-5.68-6.56V129.35H581V165.5a14.74,14.74,0,0,0,2.71,9.19c1.83,2.38,4.6,3.59,8.25,3.59h.1a11.32,11.32,0,0,0,9.45-4.48v4h8.67V129.35h-8.58ZM294.62,97h8V76.92h-3.19V36.66h-8.57V76.92H279.36V36.66H270.6V85.12h24Zm25.75-11.26a16.24,16.24,0,0,1-5.45-.82,12.88,12.88,0,0,1-3.89-2.2,11.43,11.43,0,0,1-2.57-3.07,12.57,12.57,0,0,1-1.35-3.39,24.12,24.12,0,0,1-.48-3c-.12-1.17-.22-2.45-.28-3.83s-.12-2.78-.16-4.19-.07-2.73-.07-4c0-1.6,0-3.22.07-4.85s.13-3.21.26-4.67.28-2.88.47-4.12a16.22,16.22,0,0,1,.78-3.24,12.75,12.75,0,0,1,4.66-6.18c2.16-1.53,5.12-2.3,8.81-2.3,4.86,0,8.43,1.39,10.6,4.13S335,46.58,335,51.27V63.48H314.74c0,2,.05,3.91.14,5.8a19.44,19.44,0,0,0,.63,4.62,5.2,5.2,0,0,0,5.47,4,4.3,4.3,0,0,0,3.75-1.69,9.61,9.61,0,0,0,1.52-5l0-.55,8.66,1.65,0,.43c-.25,4.18-1.57,7.44-3.9,9.68S325.09,85.77,320.37,85.77Zm3.29-40.93a5.56,5.56,0,0,0-2.86-.64,6,6,0,0,0-2.95.74,5,5,0,0,0-2.07,2.75,15.86,15.86,0,0,0-.65,3.53c-.13,1.41-.22,3.14-.28,5.14h11.58V52.82a22.14,22.14,0,0,0-.25-3.43,9,9,0,0,0-.86-2.78A4.24,4.24,0,0,0,323.66,44.84Zm38.48,40.28h8.76V36.66h-8.76v20H350.63v-20h-8.76V85.12h8.76V64.05h11.51Zm30.86,0V44.29h10V36.66H374.53v7.63h9.9V85.12Zm20.74,18.44h-8.57v-67h8.57v3.07a12,12,0,0,1,2.71-2.45A10.86,10.86,0,0,1,422.19,36a17.3,17.3,0,0,1,3.13.34A9.07,9.07,0,0,1,429,38a11.28,11.28,0,0,1,3.14,3.68A17.89,17.89,0,0,1,434,48.08c.19,1.94.3,4,.33,6.1s.05,4.12.05,6c0,3.46-.08,6.75-.23,9.77a28,28,0,0,1-1.47,8,12.31,12.31,0,0,1-3.83,5.53,13.13,13.13,0,0,1-12.24,1,9.46,9.46,0,0,1-2.88-2.18Zm11.93-50.63a18.72,18.72,0,0,0-.79-5,5.17,5.17,0,0,0-1.82-2.69,6.11,6.11,0,0,0-3.45-.83,5.22,5.22,0,0,0-4.43,1.93,8.1,8.1,0,0,0-1.53,5.06V70.3a8.14,8.14,0,0,0,1.44,5.09c.94,1.22,2.42,1.81,4.52,1.81a6,6,0,0,0,3.14-.73,4.85,4.85,0,0,0,1.81-2.57,22.17,22.17,0,0,0,1-5.24c.18-2.21.28-5,.28-8.2C425.82,57.54,425.77,55,425.67,52.93Zm59.27-1.45-4.68,9.58-4.86-9.58-7.12-14.82H460V85.12h8.77V55.32L472.42,63,478.14,74h4.06l5.73-11.12,3.86-8.31v30.6h8.76V36.66h-8.3Zm50.61-1.81V85.12H527V81.68a10.91,10.91,0,0,1-3.82,2.9,14.26,14.26,0,0,1-5.69,1.1,10.22,10.22,0,0,1-5.24-1.27,9.58,9.58,0,0,1-3.41-3.34A14.87,14.87,0,0,1,507,76.51a23.86,23.86,0,0,1-.56-5.19,26.27,26.27,0,0,1,.6-5.48,15.18,15.18,0,0,1,2.09-5.07A11.33,11.33,0,0,1,513.27,57,13.81,13.81,0,0,1,520,55.57h7V49.74a6.4,6.4,0,0,0-1.21-4.09c-.77-1-2.32-1.45-4.59-1.45a6.44,6.44,0,0,0-3.47,1.07,4.91,4.91,0,0,0-2.11,3.4l-.1.51-8.13-2.27.1-.45a13,13,0,0,1,4.8-7.67A15.08,15.08,0,0,1,521.6,36c4.37,0,7.82,1,10.25,3S535.55,44.66,535.55,49.67ZM521.88,63.2A7.83,7.83,0,0,0,517,64.88c-1.39,1.08-2.09,3.09-2.09,6a7.67,7.67,0,0,0,1.32,4.84,5,5,0,0,0,4.15,1.59,6.38,6.38,0,0,0,5-1.84A7.7,7.7,0,0,0,527,70.2v-7Zm36.34,22.39a11.38,11.38,0,0,1-5-1,9.58,9.58,0,0,1-2.88-2.18v21.2h-8.57v-67h8.57v3.07a11.81,11.81,0,0,1,2.72-2.45c1.24-.79,3.12-1.18,5.73-1.18a17.3,17.3,0,0,1,3.13.34A9.07,9.07,0,0,1,565.57,38a11.28,11.28,0,0,1,3.14,3.68,17.69,17.69,0,0,1,1.89,6.45c.19,1.94.3,4,.33,6.1s.05,4.12.05,6c0,3.46-.08,6.75-.23,9.77a28,28,0,0,1-1.47,8,12.31,12.31,0,0,1-3.83,5.53A11.33,11.33,0,0,1,558.22,85.59Zm4-32.66a18.68,18.68,0,0,0-.8-5,5.11,5.11,0,0,0-1.82-2.69,6.07,6.07,0,0,0-3.44-.83,5.2,5.2,0,0,0-4.43,1.93,8,8,0,0,0-1.54,5.06V70.3a8.21,8.21,0,0,0,1.44,5.09c.94,1.22,2.42,1.81,4.53,1.81a5.92,5.92,0,0,0,3.13-.73,4.79,4.79,0,0,0,1.81-2.57,21.67,21.67,0,0,0,1-5.24c.18-2.21.28-5,.28-8.2C562.41,57.54,562.36,55,562.27,52.93ZM585.48,64.7h3.86a15.3,15.3,0,0,1,2.81.27,6.8,6.8,0,0,1,2.37,1A6.35,6.35,0,0,1,596.38,68a13.73,13.73,0,0,1,1.37,3.63l3.38,13.46h8.43l-4.27-16A24.73,24.73,0,0,0,602.83,63a7.14,7.14,0,0,0-3.65-3.07,8.38,8.38,0,0,0,3.07-2.81,19.81,19.81,0,0,0,2.61-6l3.9-14.37h-8.33l-3.71,14a11.08,11.08,0,0,1-1.53,3.55,7,7,0,0,1-2.05,2,6.78,6.78,0,0,1-2.36.86,16.84,16.84,0,0,1-2.51.2h-2.79V36.75h-8.57V85.12h8.57Zm36.79,1.65V36.66h-8.39V85.12H622l13.42-29.89V85.12H644V36.66h-8.4Zm57.48-12.17q0,3.18,0,6c0,3.46-.07,6.75-.23,9.77a28,28,0,0,1-1.47,8,12.16,12.16,0,0,1-3.83,5.53,13.13,13.13,0,0,1-12.24,1,9.54,9.54,0,0,1-2.87-2.18v21.2h-8.58v-67h8.58v3.07a12,12,0,0,1,2.71-2.45C663.1,36.39,665,36,667.59,36a17.21,17.21,0,0,1,3.13.34A9.07,9.07,0,0,1,674.38,38a11.16,11.16,0,0,1,3.14,3.68,17.88,17.88,0,0,1,1.9,6.45C679.61,50,679.72,52.07,679.75,54.18ZM670,73.9a21.2,21.2,0,0,0,1-5.24c.19-2.21.28-5,.28-8.2,0-2.92-.05-5.46-.14-7.53a19.13,19.13,0,0,0-.79-5,5.12,5.12,0,0,0-1.83-2.69,6.07,6.07,0,0,0-3.44-.83,5.2,5.2,0,0,0-4.43,1.93,8,8,0,0,0-1.54,5.06V70.3a8.21,8.21,0,0,0,1.44,5.09c.94,1.22,2.42,1.81,4.53,1.81a5.92,5.92,0,0,0,3.13-.73A4.79,4.79,0,0,0,670,73.9Zm45.35-17.52c.07,2.12.1,4,.1,5.73a105.44,105.44,0,0,1-.57,11,16.14,16.14,0,0,1-2,6.45,11.81,11.81,0,0,1-3.7,3.91,13.59,13.59,0,0,1-4.66,1.87,26.16,26.16,0,0,1-4.87.47,16.31,16.31,0,0,1-5.27-.77,12.71,12.71,0,0,1-3.85-2.1,11,11,0,0,1-2.61-3.06,14.43,14.43,0,0,1-1.48-3.51,22.16,22.16,0,0,1-.48-3c-.13-1.17-.21-2.46-.24-3.83l-.09-4.17c0-1.41-.05-2.72-.05-3.95q0-2.4.09-4.95c.07-1.7.16-3.33.28-4.89s.29-3,.48-4.24a13.44,13.44,0,0,1,.78-3.12,12.12,12.12,0,0,1,4.7-6,15.71,15.71,0,0,1,8.82-2.2,18,18,0,0,1,6.81,1.1,10.88,10.88,0,0,1,4.3,3.07,12.05,12.05,0,0,1,2.34,4.61,28.2,28.2,0,0,1,.9,5.64Q715.22,53.2,715.31,56.38ZM703.75,76.81a7.14,7.14,0,0,0,2.18-2.94,8.93,8.93,0,0,0,.34-1.67c.13-.87.24-1.89.33-3.07s.16-2.45.19-3.78,0-2.69,0-4,0-2.67,0-4l-.1-3.79c0-1.19-.09-2.27-.18-3.23a11.7,11.7,0,0,0-.4-2.2,5.34,5.34,0,0,0-5.62-4.23,6.81,6.81,0,0,0-3.3.81A5.16,5.16,0,0,0,695,47.51a20.24,20.24,0,0,0-.75,5.5c-.14,2.85-.24,6.23-.3,10.05q0,3.18.09,6.21a17.88,17.88,0,0,0,.59,4.55c.85,2.75,2.78,4.08,5.89,4.08A5.13,5.13,0,0,0,703.75,76.81Zm46-13.37a18.67,18.67,0,0,1,1.14,6.78c0,5.13-1.38,8.94-4.11,11.33s-6.9,3.57-12.45,3.57h-12.8V36.66h13.22c5.31,0,9.27,1.19,11.78,3.54s3.8,5.68,3.8,9.87a12.64,12.64,0,0,1-1.17,5.79,10.17,10.17,0,0,1-3,3.45A8.06,8.06,0,0,1,749.74,63.44ZM742.31,50a5.2,5.2,0,0,0-1.67-4.27c-1.14-.94-3.2-1.42-6.12-1.42h-4.24V55.94h4.14c2.89,0,5-.51,6.14-1.51A5.44,5.44,0,0,0,742.31,50Zm-12,26.94h4.91a11.86,11.86,0,0,0,4-.54A5,5,0,0,0,741.34,75a4.72,4.72,0,0,0,1-2.22,18.12,18.12,0,0,0,.25-3.08,6.77,6.77,0,0,0-1.52-4.74c-1-1.08-3-1.62-6.07-1.62h-4.72Zm52.55-14a7.18,7.18,0,0,0-3.65-3.07,8.46,8.46,0,0,0,3.07-2.81,19.8,19.8,0,0,0,2.6-6l3.91-14.37h-8.33l-3.71,14a11.07,11.07,0,0,1-1.54,3.55,7,7,0,0,1-2,2,6.81,6.81,0,0,1-2.35.86,17,17,0,0,1-2.52.2h-2.79V36.75H756.9V85.12h8.57V64.7h3.87a15.19,15.19,0,0,1,2.8.27,6.72,6.72,0,0,1,2.37,1A6.24,6.24,0,0,1,776.37,68a13.71,13.71,0,0,1,1.38,3.63l3.38,13.46h8.42l-4.26-16A25.11,25.11,0,0,0,782.83,63Zm32.75-26.31L802.26,66.35V36.66h-8.38V85.12H802l13.41-29.89V85.12H824V36.66ZM60,36H52v8h8Zm16,0H68V52h8V36Zm79.77,0h-8V52h-8V36h-8v8h-8V36h-8v8h-8V36h-8v8h-8V36h-8V52h8V83.86h8V52h15.95v8h8V52h8v16h-8v8h-8v8h8v8h16v-8h-8v-8h8v8h8v-16h8v16h8v16h-8v8h15.95v-8h8v-8h-8v-8h8v-8h-16v-8h16v-8h-16V44h-8Zm8,0v8h8V36Zm16,16V44h-8v8ZM60,59.93h8V52H60Zm16,0h8V52h-8Zm8,8h-8v8h8ZM68,91.84H60v8h16v-8h8v-8h-8v-8H68v-8H60v16h8Zm79.77,8h8v-16h-8v16Zm-63.82,8h8v-8h8v8h-8v8h16v-8h8V83.86h-8v8H83.91v16Zm63.82-8H123.8v8h16v8h-8v16h8v16h-8v-8h-16v8h8v15.95h8v-8h23.93v-8h-8v-8h8V123.75h-8v-8h8v-8h-8Zm-71.79,16h8v-8H60v8h16Zm103.7,0v-8h-8v8Zm-16,8h8v-8h-8Zm-63.81,0H68v8H91.89v8h8v-8h8v-8Zm23.93,0v-8h-8v16h8Zm55.84,8v-8h-8v8Zm-71.79,0v8h8v-8ZM68,139.7H60v8h8Zm103.7,8h8v-8h-8Zm-103.7,8H60v8h8Zm95.72,8v8H139.75v-8h-8v8h-8v-8h-16V147.68h-16v8h8v16h-8v-8h-8v-8h-8v16H60v-8H52v-8h8v-8H44v-8H60V115.77H52v16H44v-16h8v-8h8v-8H52v-8h8v-8H52v-16H44V52h8V44H44V36h-8V179.58H179.64v-8h-8v-8h8v-8H155.71v8Z"/></svg>
