<svg width="324" height="563" viewBox="0 0 324 563" fill="none" xmlns="http://www.w3.org/2000/svg">
<path d="M284.386 183.467C284.292 183.27 284.292 183.064 284.189 182.867C284.076 182.679 283.898 182.576 283.776 182.398C274.295 166.137 263.08 151.01 250.345 137.3L270.488 117.166L283.748 130.426L323.529 90.6363L283.748 50.8558L243.958 90.6363L257.228 103.906L237.084 124.04C223.374 111.305 208.257 100.08 191.987 90.5988C191.809 90.4769 191.705 90.2987 191.518 90.1862C191.321 90.0737 191.115 90.0831 190.918 89.9799C161.912 73.2687 129.324 62.1373 94.5797 58.0579V46.889H108.646C121.578 46.889 132.091 36.3765 132.091 23.4446C132.091 10.5126 121.569 0.00012207 108.637 0.00012207H24.237C11.305 0.00012207 0.792558 10.5126 0.792558 23.4446C0.792558 36.3765 11.305 46.889 24.237 46.889H38.3037V57.7297C28.1757 58.8082 18.0664 60.4587 8.06972 62.7468C3.02448 63.9003 -0.135828 68.9362 1.02702 73.9814C2.18048 79.0267 7.21635 82.1964 12.2616 81.0241C20.8892 79.0454 29.6011 77.5543 38.3318 76.5509L48.3942 75.7726C51.4701 75.5381 54.3022 75.3693 57.0592 75.238V93.7779C57.0592 98.9638 61.2511 103.156 66.437 103.156C71.6229 103.156 75.8148 98.9638 75.8148 93.7779V75.3037C111.085 76.926 144.319 86.3976 173.869 101.983L164.622 117.991C162.034 122.483 163.572 128.213 168.055 130.801C169.527 131.655 171.14 132.058 172.734 132.058C175.979 132.058 179.13 130.379 180.865 127.369L190.083 111.399C219.426 130.014 244.352 154.94 262.967 184.283L246.997 193.501C242.524 196.089 240.986 201.819 243.583 206.311C245.327 209.322 248.469 211 251.714 211C253.308 211 254.921 210.597 256.393 209.743L272.401 200.497C288.203 230.468 297.702 264.247 299.118 300.08H280.597C275.411 300.08 271.22 304.272 271.22 309.457C271.22 314.643 275.411 318.835 280.597 318.835H299.118C297.702 354.668 288.203 388.446 272.401 418.418L256.393 409.171C251.911 406.583 246.171 408.102 243.583 412.604C240.995 417.096 242.533 422.825 247.016 425.414L262.986 434.632C244.371 463.975 219.445 488.901 190.102 507.516L180.883 491.546C178.286 487.044 172.537 485.516 168.073 488.113C163.581 490.702 162.043 496.441 164.641 500.924L173.888 516.931C144.338 532.517 111.103 541.989 75.8335 543.611V525.156C75.8335 519.97 71.6417 515.778 66.4558 515.778C61.2699 515.778 57.078 519.97 57.078 525.156V543.686C42.1017 543.17 27.0785 541.295 12.2897 537.9C7.24447 536.69 2.2086 539.898 1.05513 544.943C-0.10771 549.988 3.05261 555.024 8.09786 556.177C26.8159 560.491 45.9372 562.667 64.9084 562.667C65.3679 562.667 65.8087 562.639 66.2682 562.629C66.3339 562.629 66.3807 562.667 66.437 562.667C66.512 562.667 66.5777 562.62 66.6527 562.62C111.732 562.31 154.025 550.138 190.618 529.113C190.908 528.982 191.218 528.916 191.499 528.747C191.687 528.635 191.79 528.457 191.968 528.335C229.845 506.259 261.495 474.647 283.617 436.798C283.795 436.545 284.02 436.348 284.18 436.067C284.292 435.87 284.283 435.664 284.377 435.467C305.795 398.331 318.108 355.324 318.108 309.467C318.108 263.609 305.795 220.603 284.386 183.467ZM283.739 77.3762L296.999 90.6363L283.739 103.906L270.469 90.6363L283.739 77.3762ZM57.0592 56.4637V28.1335H24.237C21.6581 28.1335 19.5481 26.0235 19.5481 23.4446C19.5481 20.8657 21.6581 18.7557 24.237 18.7557H108.637C111.216 18.7557 113.326 20.8657 113.326 23.4446C113.326 26.0235 111.216 28.1335 108.637 28.1335H75.8148V56.4637C72.5513 56.3324 69.4379 56.2668 66.437 56.2668C66.1744 56.2668 65.8743 56.2855 65.6118 56.2855C65.3773 56.2855 65.1429 56.2668 64.9084 56.2668C63.3705 56.2668 61.8325 56.3699 60.2946 56.3981C59.2067 56.4262 58.1846 56.4168 57.0592 56.4637Z" fill="white"/>
</svg>
