<svg width="151" height="151" viewBox="0 0 151 151" fill="none" xmlns="http://www.w3.org/2000/svg">
<path d="M36.3235 150.252C46.0857 149.493 54.9853 144.513 60.762 136.57L148.566 15.1843C151.258 11.4613 150.854 6.32225 147.591 3.05879C144.327 -0.195303 139.188 -0.598548 135.465 2.0835L14.0606 89.9158C6.14577 95.6737 1.16618 104.573 0.406575 114.335C-0.353025 124.098 3.18239 133.654 10.0938 140.565C16.3863 146.867 24.8732 150.356 33.6977 150.356C34.5698 150.356 35.442 150.318 36.3235 150.252ZM19.1059 115.798C19.4341 111.513 21.6285 107.602 25.0795 105.089L99.1358 51.5138L45.5793 125.551C43.0473 129.03 39.1368 131.215 34.8511 131.553C30.5843 131.834 26.3924 130.353 23.3446 127.305C20.325 124.276 18.7683 120.075 19.1059 115.798Z" fill="white"/>
</svg>
