<svg width="243" height="422" viewBox="0 0 243 422" fill="none" xmlns="http://www.w3.org/2000/svg">
<path d="M213.039 137.6C212.969 137.452 212.969 137.298 212.891 137.15C212.807 137.009 212.673 136.932 212.582 136.798C205.471 124.603 197.059 113.258 187.508 102.975L202.616 87.8745L212.561 97.8196L242.396 67.9772L212.561 38.1418L182.718 67.9772L192.671 77.9293L177.563 93.0299C167.28 83.4786 155.943 75.0597 143.74 67.949C143.606 67.8576 143.529 67.724 143.388 67.6396C143.24 67.5552 143.086 67.5622 142.938 67.4848C121.184 54.9514 96.7429 46.6029 70.6844 43.5434V35.1667H81.2344C90.9334 35.1667 98.8178 27.2823 98.8178 17.5833C98.8178 7.88437 90.9264 0 81.2274 0H17.9274C8.22845 0 0.344083 7.88437 0.344083 17.5833C0.344083 27.2823 8.22845 35.1667 17.9274 35.1667H28.4774V43.2972C20.8814 44.106 13.2995 45.3439 5.80196 47.06C2.01802 47.9251 -0.352207 51.702 0.519927 55.486C1.38503 59.2699 5.16193 61.6472 8.94586 60.768C15.4165 59.284 21.9505 58.1657 28.4985 57.4131L36.0453 56.8293C38.3522 56.6535 40.4763 56.5269 42.5441 56.4284V70.3333C42.5441 74.2228 45.688 77.3667 49.5774 77.3667C53.4669 77.3667 56.6107 74.2228 56.6107 70.3333V56.4777C83.0631 57.6944 107.989 64.7981 130.151 76.4875L123.216 88.4934C121.275 91.8624 122.429 96.1597 125.791 98.1009C126.895 98.741 128.105 99.0434 129.3 99.0434C131.734 99.0434 134.097 97.7844 135.398 95.5267L142.312 83.549C164.319 97.5101 183.014 116.205 196.975 138.212L184.997 145.126C181.642 147.067 180.489 151.364 182.437 154.733C183.745 156.991 186.101 158.25 188.535 158.25C189.731 158.25 190.94 157.948 192.045 157.308L204.051 150.373C215.902 172.851 223.026 198.185 224.088 225.06H210.198C206.308 225.06 203.164 228.204 203.164 232.093C203.164 235.982 206.308 239.126 210.198 239.126H224.088C223.026 266.001 215.902 291.335 204.051 313.813L192.045 306.878C188.683 304.937 184.378 306.077 182.437 309.453C180.496 312.822 181.649 317.119 185.011 319.06L196.989 325.974C183.028 347.981 164.333 366.676 142.326 380.637L135.412 368.659C133.464 365.283 129.153 364.137 125.805 366.085C122.436 368.026 121.282 372.331 123.23 375.693L130.165 387.698C108.003 399.388 83.0772 406.491 56.6248 407.708V393.867C56.6248 389.977 53.4809 386.833 49.5915 386.833C45.7021 386.833 42.5582 389.977 42.5582 393.867V407.765C31.3259 407.378 20.0585 405.971 8.96695 403.425C5.18301 402.518 1.40612 404.923 0.541015 408.707C-0.331118 412.491 2.03912 416.268 5.82306 417.133C19.8616 420.368 34.2025 422 48.431 422C48.7756 422 49.1062 421.979 49.4508 421.972C49.5001 421.972 49.5352 422 49.5774 422C49.6337 422 49.6829 421.965 49.7392 421.965C83.5484 421.733 115.269 412.603 142.713 396.835C142.931 396.736 143.163 396.687 143.374 396.56C143.515 396.476 143.592 396.342 143.726 396.251C172.133 379.694 195.871 355.985 212.462 327.599C212.596 327.409 212.765 327.261 212.884 327.05C212.969 326.902 212.962 326.748 213.032 326.6C229.096 298.748 238.331 266.493 238.331 232.1C238.331 197.707 229.096 165.452 213.039 137.6ZM212.554 58.032L222.499 67.9772L212.554 77.9293L202.602 67.9772L212.554 58.032ZM42.5441 42.3477V21.1H17.9274C15.9932 21.1 14.4107 19.5175 14.4107 17.5833C14.4107 15.6492 15.9932 14.0667 17.9274 14.0667H81.2274C83.1616 14.0667 84.7441 15.6492 84.7441 17.5833C84.7441 19.5175 83.1616 21.1 81.2274 21.1H56.6107V42.3477C54.1631 42.2492 51.8281 42.2 49.5774 42.2C49.3805 42.2 49.1554 42.2141 48.9585 42.2141C48.7827 42.2141 48.6068 42.2 48.431 42.2C47.2775 42.2 46.1241 42.2774 44.9706 42.2985C44.1547 42.3196 43.3881 42.3125 42.5441 42.3477Z" fill="white"/>
</svg>
