<svg width="114" height="114" viewBox="0 0 114 114" fill="none" xmlns="http://www.w3.org/2000/svg">
<path d="M27.4924 113.189C34.8141 112.62 41.4888 108.885 45.8213 102.928L111.674 11.8882C113.693 9.09598 113.391 5.2417 110.943 2.7941C108.495 0.353538 104.641 0.0511044 101.849 2.06264L10.7953 67.9368C4.85914 72.2553 1.12445 78.9299 0.554748 86.2516C-0.0149516 93.5733 2.63661 100.74 7.82018 105.924C12.5395 110.65 18.9047 113.267 25.5231 113.267C26.1772 113.267 26.8313 113.239 27.4924 113.189ZM14.5792 87.3488C14.8254 84.1346 16.4712 81.2017 19.0594 79.3168L74.6017 39.1353L34.4343 94.6635C32.5353 97.2729 29.6024 98.9116 26.3882 99.1648C23.188 99.3758 20.0441 98.2646 17.7583 95.9787C15.4935 93.707 14.326 90.556 14.5792 87.3488Z" fill="white"/>
</svg>
