<?xml version="1.0" standalone="no"?>
<!DOCTYPE svg PUBLIC "-//W3C//DTD SVG 20010904//EN"
 "http://www.w3.org/TR/2001/REC-SVG-20010904/DTD/svg10.dtd">
<svg version="1.0" xmlns="http://www.w3.org/2000/svg"
 width="700.000000pt" height="700.000000pt" viewBox="0 0 700.000000 700.000000"
 preserveAspectRatio="xMidYMid meet">
<metadata>
Created by potrace 1.11, written by Peter Selinger 2001-2013
</metadata>
<g transform="translate(0.000000,700.000000) scale(0.100000,-0.100000)"
fill="#000000" stroke="none">
<path d="M2 6393 l3 -608 155 -1 155 0 0 450 0 451 497 0 c437 0 498 2 499 15
1 8 2 79 3 158 l1 142 -658 0 -657 0 2 -607z"/>
<path d="M5822 6846 c0 -136 2 -155 16 -158 10 -2 207 -4 438 -3 l422 0 0
-420 c1 -231 1 -434 1 -451 l1 -30 150 0 150 1 0 607 0 608 -589 0 -588 0 -1
-154z"/>
<path d="M1293 5832 l-123 -3 0 -2329 0 -2330 2333 0 2333 0 -2 123 c-1 67 -2
125 -3 128 0 3 -57 6 -126 5 -118 -1 -125 0 -126 19 -1 22 -1 226 0 238 1 4
59 7 129 7 l128 0 -1 128 0 127 -384 2 c-234 1 -386 6 -390 11 -3 6 -5 52 -5
104 3 138 12 129 -122 126 -63 -2 -115 -1 -115 2 -3 15 -5 237 -2 246 3 7 46
10 128 9 80 -1 125 3 128 9 2 9 1 472 -2 517 -1 13 -18 15 -113 13 -62 -1
-120 -1 -128 2 -13 3 -15 25 -15 129 l0 125 35 1 c19 0 76 0 127 0 63 0 92 3
95 12 2 7 3 65 2 130 l-1 117 252 0 253 0 0 -117 c0 -65 0 -123 1 -130 1 -8
37 -11 129 -10 l127 2 0 125 0 125 -120 5 -120 5 0 123 c-1 138 -3 135 83 132
26 -1 76 -1 112 -1 l65 1 -2 103 c0 56 -1 114 -2 128 l-1 26 -117 -2 c-65 0
-123 0 -128 2 -6 2 -10 53 -10 131 l0 127 124 1 c70 1 126 6 130 12 5 8 6 178
2 238 -1 8 -76 11 -257 10 -141 0 -261 2 -267 6 -8 5 -12 51 -13 138 l0 130
115 0 c64 1 181 2 261 3 l145 2 0 118 c0 74 -3 117 -10 118 -5 0 -118 2 -250
3 -132 2 -245 3 -250 4 -7 1 -11 87 -11 257 0 222 2 255 16 256 8 0 67 1 131
2 l115 1 2 127 1 128 -42 3 c-23 2 -83 2 -133 0 l-91 -3 1 -125 c1 -79 -2
-125 -9 -126 -5 0 -63 -2 -127 -2 -136 -2 -124 -16 -122 146 1 125 14 115
-141 110 l-100 -3 0 -247 c1 -136 -1 -253 -3 -259 -3 -10 -38 -13 -128 -13
-122 0 -124 0 -125 23 0 12 -1 126 -1 252 0 127 -4 235 -8 240 -5 6 -60 9
-138 7 l-130 -3 -1 -120 c0 -66 -3 -124 -5 -128 -3 -4 -60 -7 -128 -7 l-123 1
-2 120 c-1 66 -2 123 -2 128 -1 4 -59 7 -131 7 l-129 0 -3 -127 -3 -128 -125
0 -125 0 -1 125 -1 125 -130 3 -129 3 1 -113 c0 -62 -1 -120 -3 -129 -3 -13
-23 -15 -130 -15 l-127 1 1 128 0 128 -129 -3 -130 -3 1 -257 1 -258 -132 0
-133 0 2 -122 c1 -68 2 -126 3 -130 0 -4 59 -7 131 -6 l129 1 0 106 c-1 58 -1
116 0 129 1 22 3 22 129 22 l128 0 -1 -511 c0 -281 3 -513 7 -515 14 -9 241
-5 247 5 3 5 6 237 6 515 l-1 506 258 0 257 0 3 -127 3 -128 110 -2 c165 -2
151 -15 148 132 l-1 125 129 0 129 0 1 -32 c0 -38 0 -203 -1 -360 l0 -107 -97
0 c-54 1 -112 1 -130 0 l-32 -1 2 -120 c1 -65 -2 -123 -7 -127 -4 -4 -62 -8
-129 -8 l-122 0 -3 -130 -3 -131 131 2 130 2 1 -26 c1 -15 1 -65 1 -112 -2
-142 -32 -127 263 -126 l255 0 0 123 0 123 138 -2 137 -3 0 260 c-1 143 0 265
2 270 3 10 223 11 247 2 8 -3 10 -83 9 -258 -1 -140 -2 -257 -2 -261 -1 -5
-55 -8 -120 -8 -85 0 -122 -4 -128 -12 -11 -18 -10 -498 1 -505 11 -7 233 -6
244 1 4 2 7 119 6 259 l-1 255 128 1 129 1 0 -260 0 -260 -22 -1 c-13 0 -70
-1 -128 -2 l-105 -2 -2 -110 c-1 -60 -2 -118 -2 -128 -1 -16 -12 -17 -128 -15
l-128 3 0 125 0 125 -396 2 -395 2 -1 -129 0 -130 258 0 259 0 0 -129 0 -129
-82 0 c-46 0 -104 -1 -129 -1 l-47 -1 2 -257 1 -258 128 -3 127 -3 0 -264 0
-265 -35 -1 c-19 0 -64 0 -100 0 -138 0 -124 -7 -124 59 1 31 0 89 0 128 l-1
70 -260 0 -260 0 0 -128 0 -128 58 -1 c31 0 90 0 130 0 48 0 72 -4 73 -12 0
-7 1 -118 1 -247 l1 -235 -260 -3 -260 -2 -1 227 c0 126 -1 238 -1 250 l-1 22
-254 0 c-184 -1 -256 -4 -258 -12 -3 -10 -2 -216 1 -239 1 -5 57 -8 125 -8 90
0 125 -3 128 -12 2 -7 3 -123 3 -258 l-1 -245 -130 -3 -130 -3 1 131 2 130
-129 0 -128 0 -1 43 c-1 23 -1 82 0 130 l1 88 -133 -3 -132 -3 0 -255 0 -255
-257 -3 -258 -2 0 130 0 130 -130 0 -130 0 0 130 0 130 130 0 130 0 0 -120 0
-120 120 0 120 0 0 130 0 129 -107 0 c-60 0 -114 0 -120 0 -10 1 -13 32 -13
121 l0 121 120 -3 120 -3 0 140 0 140 -120 -1 -120 -1 0 389 0 388 53 0 c28 1
203 1 388 1 l336 1 2 129 2 129 -390 0 c-365 0 -391 -1 -392 -17 0 -10 0 -68
0 -129 l0 -111 -129 -1 -130 -1 0 129 0 130 130 0 130 0 0 129 0 130 233 0
c127 0 243 0 257 0 l25 1 0 127 0 128 132 1 132 1 0 -241 c0 -133 0 -249 0
-258 1 -16 14 -18 129 -18 l129 0 -2 113 c0 61 1 120 3 129 4 15 18 17 131 15
l126 -2 0 -115 c1 -63 -1 -121 -3 -127 -3 -10 -38 -13 -128 -13 -68 0 -125 -3
-125 -7 -4 -22 -5 -230 -1 -240 5 -16 512 -16 513 1 0 6 1 64 0 129 l0 117
129 0 130 0 0 389 0 389 -129 1 -129 1 0 -107 c0 -60 -1 -119 -1 -133 l-1 -25
-380 0 c-208 1 -382 4 -386 8 -4 3 -7 62 -8 129 l-1 123 -130 5 -130 5 0 126
1 127 -138 -2 -138 -1 0 138 0 137 -32 1 c-40 1 -166 1 -190 0 -17 -1 -18 -21
-18 -265 l0 -265 -47 -3 c-27 -2 -85 -2 -130 0 l-83 3 0 265 0 264 -22 1 c-13
0 -71 1 -130 1 l-108 0 0 249 0 249 130 0 130 0 0 130 c0 97 3 130 13 131 6 0
65 1 130 2 l117 1 0 127 0 128 -27 3 c-16 2 -74 2 -130 0 l-103 -3 0 -129 0
-128 -127 2 -128 1 -3 125 c-1 69 -6 127 -10 130 -4 3 -62 4 -129 2z m3245
-1417 l3 -120 -123 2 c-68 1 -126 2 -130 2 -4 1 -7 54 -7 119 l1 119 127 -1
126 -1 3 -120z m-2348 -269 l0 -131 -108 1 c-59 1 -113 2 -119 3 -10 1 -13 34
-13 131 l0 129 120 0 120 -1 0 -132z m-240 -258 l0 -128 -42 -1 c-24 0 -81 -1
-128 -1 l-85 0 -3 129 -3 129 131 0 130 -1 0 -127z m-312 -647 l52 -1 0 -259
0 -259 -130 -1 -130 0 0 259 c0 293 -10 266 94 263 34 -1 85 -2 114 -2z m310
-923 l3 -128 -180 -1 c-100 0 -210 0 -246 0 -36 0 -72 0 -80 0 -12 1 -15 22
-15 125 0 85 4 126 12 128 6 2 122 4 257 4 l246 -1 3 -127z m3108 -505 l-1
-118 121 -3 121 -3 0 -128 c0 -124 -1 -129 -21 -133 -11 -1 -181 -3 -376 -3
l-355 1 -3 132 -3 133 -117 -1 c-64 -1 -122 -1 -129 -1 -8 1 -12 36 -12 121
l-1 120 388 0 388 0 0 -117z m-774 -237 c2 -51 1 -107 -2 -122 l-5 -29 -110 2
c-61 1 -117 2 -126 2 -13 1 -16 19 -16 121 l-1 120 128 0 129 0 3 -94z"/>
<path d="M2283 5832 l-93 -3 0 -259 0 -260 -120 0 -120 0 -1 -40 c0 -22 0 -60
0 -85 0 -25 0 -65 0 -90 l1 -45 120 2 120 1 0 129 0 128 129 0 129 0 0 259 0
259 -37 4 c-20 1 -78 2 -128 0z"/>
<path d="M5582 5562 c-4 -12 -6 -175 -3 -235 1 -16 12 -17 128 -15 l128 3 0
128 c0 80 -3 127 -10 128 -5 0 -61 2 -124 3 -88 1 -115 -2 -119 -12z"/>
<path d="M2469 4790 c-7 -30 -2 -243 5 -247 5 -4 64 -6 130 -7 l121 0 2 127
c1 70 -2 128 -5 128 -25 4 -252 4 -253 -1z"/>
<path d="M3777 3242 c-15 -3 -17 -28 -17 -263 l0 -259 -127 2 -128 3 -1 117
c-1 64 -4 123 -6 130 -4 11 -130 13 -654 13 l-649 -1 -3 -132 -3 -132 399 0
398 0 0 -129 -1 -129 127 0 c109 0 127 2 130 17 2 9 3 67 3 129 l0 112 127 0
c115 0 128 -2 129 -17 0 -10 1 -67 2 -128 l2 -110 128 -1 127 -1 0 129 0 128
130 0 c97 0 130 3 131 13 0 6 1 123 2 259 l2 248 -35 1 c-19 0 -71 1 -116 2
-44 1 -88 1 -97 -1z"/>
<path d="M5321 3240 c-4 -3 -7 -61 -7 -130 l1 -125 132 0 131 0 -1 -133 -2
-133 130 3 130 3 1 120 c0 66 -1 125 -3 130 -2 6 -51 10 -124 9 -70 0 -123 4
-126 9 -4 6 -6 64 -5 129 0 84 -3 118 -11 119 -71 3 -241 3 -246 -1z"/>
<path d="M5577 2462 c-15 -3 -17 -20 -17 -130 l0 -127 128 0 127 0 3 128 c2
116 1 127 -15 128 -59 3 -212 3 -226 1z"/>
<path d="M0 670 l0 -670 655 0 c360 0 655 3 656 8 4 33 3 302 -1 303 -3 1
-225 3 -495 4 -269 1 -492 3 -495 4 -3 0 -5 231 -5 511 l0 510 -157 0 -158 0
0 -670z"/>
<path d="M6694 834 c1 -327 -3 -508 -9 -513 -5 -4 -202 -7 -437 -6 l-428 0 -1
-37 c0 -21 -1 -85 -1 -143 0 -58 1 -112 1 -120 1 -13 74 -15 591 -15 l590 0 0
670 0 670 -153 0 -154 0 1 -506z"/>
</g>
</svg>
