<svg width="574" height="231" fill="none" xmlns="http://www.w3.org/2000/svg"><path d="M84.897 226.864l82.892-189.85V3.924H.333v41.78H112.64l-79.884 181.16h52.142zm191.829 4.011c53.813 0 89.243-29.747 89.243-77.21 0-45.123-33.759-72.196-71.528-72.196-20.389 0-38.438 8.022-49.134 18.717V45.705h105.621V3.925H197.845v128.014l33.09 8.691c13.369-12.701 28.41-18.049 46.794-18.049 25.402 0 40.109 13.369 40.109 33.09 0 18.049-15.041 33.09-41.446 33.09-23.397 0-44.12-8.691-59.161-24.4l-26.405 33.09c19.051 20.723 47.128 33.424 85.9 33.424zm204.69 0c63.506 0 92.251-57.824 92.251-115.313 0-57.49-28.745-114.98-92.251-114.98-63.841 0-92.251 57.49-92.251 114.98 0 57.489 28.41 115.313 92.251 115.313zm0-42.114c-32.088 0-44.12-32.088-44.12-73.199 0-41.112 12.032-72.865 44.12-72.865 31.753 0 43.785 31.753 43.785 72.865 0 41.111-12.032 73.199-43.785 73.199z" opacity=".2" fill="#fff"/></svg>