<svg width="243" height="422" fill="none" xmlns="http://www.w3.org/2000/svg"><path d="M213.039 137.6c-.07-.148-.07-.302-.148-.45-.084-.141-.218-.218-.309-.352a191.268 191.268 0 00-25.074-33.823l15.108-15.1 9.945 9.945 29.835-29.843-29.835-29.835-29.843 29.835 9.953 9.952-15.108 15.1a190.983 190.983 0 00-33.823-25.08c-.134-.091-.211-.225-.352-.31-.148-.084-.302-.077-.45-.154-21.754-12.534-46.195-20.882-72.254-23.942v-8.376h10.55c9.7 0 17.584-7.885 17.584-17.584S90.926 0 81.228 0h-63.3C8.227 0 .343 7.884.343 17.583c0 9.7 7.884 17.584 17.583 17.584h10.55v8.13A193.449 193.449 0 005.802 47.06 7.03 7.03 0 00.52 55.486c.865 3.784 4.642 6.161 8.426 5.282a178.879 178.879 0 0119.553-3.355l7.546-.584a226.98 226.98 0 016.5-.4v13.904a7.027 7.027 0 007.032 7.034 7.027 7.027 0 007.034-7.034V56.478a174.46 174.46 0 0173.54 20.01l-6.935 12.005a7.035 7.035 0 006.084 10.55 7.021 7.021 0 006.098-3.516l6.914-11.978a177.2 177.2 0 0154.663 54.663l-11.978 6.914a7.03 7.03 0 00-2.56 9.607 7.03 7.03 0 006.098 3.517 6.98 6.98 0 003.51-.942l12.006-6.935c11.851 22.478 18.975 47.812 20.037 74.687h-13.89a7.027 7.027 0 00-7.034 7.033 7.027 7.027 0 007.034 7.033h13.89c-1.062 26.875-8.186 52.209-20.037 74.687l-12.006-6.935c-3.362-1.941-7.667-.801-9.608 2.575a7.034 7.034 0 002.574 9.607l11.978 6.914a177.199 177.199 0 01-54.663 54.663l-6.914-11.978c-1.948-3.376-6.259-4.522-9.607-2.574a7.025 7.025 0 00-2.575 9.608l6.935 12.005a174.455 174.455 0 01-73.54 20.01v-13.841a7.027 7.027 0 00-7.033-7.034 7.027 7.027 0 00-7.034 7.034v13.898c-11.232-.387-22.5-1.794-33.591-4.34-3.784-.907-7.56 1.498-8.426 5.282a7.03 7.03 0 005.282 8.426A190.07 190.07 0 0048.431 422c.345 0 .675-.021 1.02-.028.05 0 .084.028.126.028.057 0 .106-.035.162-.035 33.81-.232 65.53-9.362 92.974-25.13.218-.099.45-.148.661-.275.141-.084.218-.218.352-.309a191.293 191.293 0 0068.736-68.652c.134-.19.303-.338.422-.549.085-.148.078-.302.148-.45 16.064-27.852 25.299-60.107 25.299-94.5s-9.235-66.648-25.292-94.5zm-.485-79.568l9.945 9.945-9.945 9.952-9.952-9.952 9.952-9.945zM42.544 42.348V21.1H17.927a3.527 3.527 0 01-3.516-3.517 3.527 3.527 0 013.516-3.516h63.3a3.527 3.527 0 013.517 3.516 3.527 3.527 0 01-3.517 3.517H56.611v21.248a174.792 174.792 0 00-7.034-.148c-.197 0-.422.014-.618.014-.176 0-.352-.014-.528-.014-1.153 0-2.307.077-3.46.098-.816.022-1.583.014-2.427.05z" fill="#fff"/></svg>