<svg width="151" height="151" fill="none" xmlns="http://www.w3.org/2000/svg"><path d="M36.324 150.252c9.762-.759 18.661-5.739 24.438-13.682l87.804-121.386a9.379 9.379 0 00-.975-12.125 9.402 9.402 0 00-12.126-.976L14.061 89.916A33.358 33.358 0 00.407 114.335a33.38 33.38 0 009.687 26.23 33.325 33.325 0 0026.23 9.687zm-17.218-34.454a14.633 14.633 0 015.973-10.709l74.057-53.575-53.557 74.037a14.677 14.677 0 01-10.728 6.002c-4.267.281-8.459-1.2-11.506-4.248a14.667 14.667 0 01-4.24-11.507z" fill="#fff"/></svg>