<svg width="324" height="563" fill="none" xmlns="http://www.w3.org/2000/svg"><path d="M284.386 183.467c-.094-.197-.094-.403-.197-.6-.113-.188-.291-.291-.413-.469a254.93 254.93 0 00-33.431-45.098l20.143-20.134 13.26 13.26 39.781-39.79-39.781-39.78-39.79 39.78 13.27 13.27-20.144 20.134a254.658 254.658 0 00-45.097-33.441c-.178-.122-.282-.3-.469-.413-.197-.112-.403-.103-.6-.206-29.006-16.711-61.594-27.843-96.338-31.922V46.889h14.066c12.932 0 23.445-10.513 23.445-23.444C132.091 10.513 121.569 0 108.637 0h-84.4C11.305 0 .793 10.513.793 23.445c0 12.931 10.512 23.444 23.444 23.444h14.067v10.84c-10.128 1.08-20.238 2.73-30.234 5.018C3.024 63.9-.136 68.937 1.027 73.98c1.153 5.046 6.19 8.215 11.235 7.043a238.483 238.483 0 0126.07-4.473l10.062-.778a301.13 301.13 0 018.665-.535v18.54a9.37 9.37 0 009.378 9.378 9.37 9.37 0 009.378-9.378V75.304c35.27 1.622 68.504 11.094 98.054 26.679l-9.247 16.008c-2.588 4.492-1.05 10.222 3.433 12.81a9.295 9.295 0 004.679 1.257 9.364 9.364 0 008.131-4.689l9.218-15.97a236.265 236.265 0 0172.884 72.884l-15.97 9.218c-4.473 2.588-6.011 8.318-3.414 12.81a9.372 9.372 0 008.131 4.689 9.295 9.295 0 004.679-1.257l16.008-9.246c15.802 29.971 25.301 63.75 26.717 99.583h-18.521a9.368 9.368 0 00-9.377 9.377 9.369 9.369 0 009.377 9.378h18.521c-1.416 35.833-10.915 69.611-26.717 99.583l-16.008-9.247c-4.482-2.588-10.222-1.069-12.81 3.433-2.588 4.492-1.05 10.221 3.433 12.81l15.97 9.218a236.265 236.265 0 01-72.884 72.884l-9.219-15.97c-2.597-4.502-8.346-6.03-12.81-3.433-4.492 2.589-6.03 8.328-3.432 12.811l9.247 16.007c-29.55 15.586-62.785 25.058-98.055 26.68v-18.455a9.37 9.37 0 00-9.377-9.378 9.37 9.37 0 00-9.378 9.378v18.53c-14.976-.516-30-2.391-44.788-5.786-5.046-1.21-10.081 1.998-11.235 7.043-1.163 5.045 1.998 10.081 7.043 11.234 18.718 4.314 37.84 6.49 56.81 6.49.46 0 .9-.028 1.36-.038.066 0 .113.038.169.038.075 0 .14-.047.216-.047 45.079-.31 87.372-12.482 123.965-33.507.29-.131.6-.197.881-.366.188-.112.291-.29.469-.412a255.052 255.052 0 0091.649-91.537c.178-.253.403-.45.563-.731.112-.197.103-.403.197-.6 21.418-37.136 33.731-80.143 33.731-126 0-45.858-12.313-88.864-33.722-126zm-.647-106.09l13.26 13.26-13.26 13.269-13.27-13.27 13.27-13.26zM57.059 56.463v-28.33H24.237a4.703 4.703 0 01-4.689-4.69 4.703 4.703 0 014.689-4.688h84.4a4.703 4.703 0 014.689 4.689 4.703 4.703 0 01-4.689 4.689H75.815v28.33a233.122 233.122 0 00-9.378-.197c-.263 0-.563.018-.825.018-.235 0-.47-.018-.704-.018-1.538 0-3.075.103-4.613.131-1.088.028-2.11.019-3.236.066z" fill="#fff"/></svg>